<?xml version="1.0" encoding="iso-8859-1"?>
<!-- Generator: Adobe Illustrator 16.0.0, SVG Export Plug-In . SVG Version: 6.00 Build 0)  -->
<!DOCTYPE svg PUBLIC "-//W3C//DTD SVG 1.1//EN" "http://www.w3.org/Graphics/SVG/1.1/DTD/svg11.dtd">
<svg version="1.1" id="Capa_1" xmlns="http://www.w3.org/2000/svg" xmlns:xlink="http://www.w3.org/1999/xlink" x="0px" y="0px"
	 width="50.94px" height="50.94px" viewBox="0 0 50.94 50.94" style="enable-background:new 0 0 50.94 50.94;" xml:space="preserve"
	>
<g>
	<path d="M18.629,3.044c-4.475,0-8.104,3.628-8.104,8.103c0,3.11,1.755,5.807,4.326,7.165c0.534,0.264,4.515,2.345,3.777,5.531
		c-0.989,4.273-6.096,2.891-6.096,2.891l-0.003,0.01c-0.823-0.221-1.685-0.35-2.577-0.35C4.455,26.394,0,30.85,0,36.346
		c0,4.729,3.3,8.679,7.721,9.692l-0.002,0.007c0,0,39.979,10.292,43.061-17.656C53.588,2.938,18.629,3.044,18.629,3.044z
		 M12.971,41.952c-2.696,0-4.881-1.783-4.881-3.982s2.185-3.982,4.881-3.982c2.697,0,4.882,1.783,4.882,3.982
		S15.668,41.952,12.971,41.952z M22.923,12.47c0-1.523,1.513-2.759,3.381-2.759c1.87,0,3.383,1.236,3.383,2.759
		s-1.514,2.759-3.383,2.759C24.436,15.229,22.923,13.994,22.923,12.47z M28.805,43.952c-2.696,0-4.881-1.783-4.881-3.982
		s2.185-3.982,4.881-3.982s4.881,1.783,4.881,3.982S31.501,43.952,28.805,43.952z M34.424,18.172c0-2.199,2.185-3.983,4.881-3.983
		s4.881,1.783,4.881,3.983c0,2.199-2.185,3.982-4.881,3.982S34.424,20.371,34.424,18.172z M41.639,35.987
		c-2.696,0-4.881-1.783-4.881-3.982s2.185-3.982,4.881-3.982s4.881,1.783,4.881,3.982S44.335,35.987,41.639,35.987z"/>
</g>
<g>
</g>
<g>
</g>
<g>
</g>
<g>
</g>
<g>
</g>
<g>
</g>
<g>
</g>
<g>
</g>
<g>
</g>
<g>
</g>
<g>
</g>
<g>
</g>
<g>
</g>
<g>
</g>
<g>
</g>
</svg>
